HIERARCHY
ROOT SpineBase
{
  OFFSET 0.000000 0.000000 0.000000
  CHANNELS 6 Xposition Yposition Zposition Zrotation Xrotation Yrotation
  JOINT SpineMid
  {
    OFFSET 0.000000 33.700498 0.000000
    CHANNELS 3 Zrotation Xrotation Yrotation
    JOINT SpineShoulder
    {
      OFFSET -0.995645 25.120810 -1.065551
      CHANNELS 3 Zrotation Xrotation Yrotation
      JOINT Neck
      {
        OFFSET 1.026905 8.022528 -0.751537
        CHANNELS 3 Zrotation Xrotation Yrotation
        JOINT Head
        {
          OFFSET 3.413668 11.193203 6.059334
          CHANNELS 3 Zrotation Xrotation Yrotation
          End Site
          {
            OFFSET 0 0 0
          }
        }
      }
      JOINT ShoulderLeft
      {
        OFFSET -5.886573 -3.487825 -13.222115
        CHANNELS 3 Zrotation Xrotation Yrotation
        JOINT ElbowLeft
        {
          OFFSET -5.055506 -25.707615 -6.941290
          CHANNELS 3 Zrotation Xrotation Yrotation
          JOINT WristLeft
          {
            OFFSET 0.810674 -22.137202 -4.130163
            CHANNELS 3 Zrotation Xrotation Yrotation
            JOINT HandLeft
            {
              OFFSET -2.785168 -7.899167 0.008373
              CHANNELS 3 Zrotation Xrotation Yrotation
              JOINT HandTipLeft
              {
                OFFSET 0.739517 -8.235265 0.485863
                CHANNELS 3 Zrotation Xrotation Yrotation
                End Site
                {
                  OFFSET 0 0 0
                }
              }
              JOINT ThumbLeft
              {
                OFFSET -2.652209 -1.312778 -2.584357
                CHANNELS 3 Zrotation Xrotation Yrotation
                End Site
                {
                  OFFSET 0 0 0
                }
              }
            }
          }
        }
      }
      JOINT ShoulderRight
      {
        OFFSET 9.883937 -6.826391 8.551627
        CHANNELS 3 Zrotation Xrotation Yrotation
        JOINT ElbowRight
        {
          OFFSET 1.569142 -26.375799 1.491551
          CHANNELS 3 Zrotation Xrotation Yrotation
          JOINT WristRight
          {
            OFFSET 0.209867 -26.272293 2.786460
            CHANNELS 3 Zrotation Xrotation Yrotation
            JOINT HandRight
            {
              OFFSET -0.854817 -4.498618 6.138929
              CHANNELS 3 Zrotation Xrotation Yrotation
              JOINT HandTipRight
              {
                OFFSET 1.743021 -3.156916 1.959676
                CHANNELS 3 Zrotation Xrotation Yrotation
                End Site
                {
                  OFFSET 0 0 0
                }
              }
              JOINT ThumbRight
              {
                OFFSET -1.493463 0.311760 -5.555834
                CHANNELS 3 Zrotation Xrotation Yrotation
                End Site
                {
                  OFFSET 0 0 0
                }
              }
            }
          }
        }
      }
    }
  }
  JOINT HipLeft
  {
    OFFSET -4.936714 2.051413 -8.206466
    CHANNELS 3 Zrotation Xrotation Yrotation
    JOINT KneeLeft
    {
      OFFSET -10.583584 -29.477830 -1.778383
      CHANNELS 3 Zrotation Xrotation Yrotation
      JOINT AnkleLeft
      {
        OFFSET -9.226022 -37.069601 8.583068
        CHANNELS 3 Zrotation Xrotation Yrotation
        JOINT FootLeft
        {
          OFFSET 2.321418 -6.860768 -2.391519
          CHANNELS 3 Zrotation Xrotation Yrotation
          End Site
          {
            OFFSET 0 0 0
          }
        }
      }
    }
  }
  JOINT HipRight
  {
    OFFSET 5.161389 0.591461 1.097879
    CHANNELS 3 Zrotation Xrotation Yrotation
    JOINT KneeRight
    {
      OFFSET -2.627106 -32.171799 6.238981
      CHANNELS 3 Zrotation Xrotation Yrotation
      JOINT AnkleRight
      {
        OFFSET -3.604732 -35.407853 13.675966
        CHANNELS 3 Zrotation Xrotation Yrotation
        JOINT FootRight
        {
          OFFSET 4.535721 -4.909813 -3.346678
          CHANNELS 3 Zrotation Xrotation Yrotation
          End Site
          {
            OFFSET 0 0 0
          }
        }
      }
    }
  }
}
MOTION
Frames: 6
Frame Time: 0.033333
-4.524469 75.988219 254.471840 0.416168 -2.625851 -41.478324 -2.528975 -1.915212 41.306087 9.082441 0.326341 0.867893 -16.954671 -5.225896 7.051024 0.000000 0.000000 0.000000 -9.003319 3.280834 -0.103809 4.398489 1.473899 -0.710492 11.637339 -5.289908 2.157518 -11.217178 9.215468 -0.247918 0.000000 0.000000 0.000000 0.000000 0.000000 0.000000 -4.309412 -5.229915 -1.010781 0.864216 22.680114 0.112184 11.333628 54.750081 -10.535913 -33.945762 -24.338144 -11.383048 0.000000 0.000000 0.000000 0.000000 0.000000 0.000000 -8.622732 2.929246 40.154901 2.570345 -2.272409 0.610023 34.537164 41.143092 -5.959022 0.000000 0.000000 0.000000 -8.739739 8.186153 41.197032 -0.207407 -7.604092 0.268273 4.571006 19.258097 14.638355 0.000000 0.000000 0.000000
-4.299087 75.888494 254.940427 0.114718 -2.751272 -41.137466 -2.390987 -1.723636 40.956628 9.202837 0.348149 0.876854 -16.876473 -6.000178 7.202153 0.000000 0.000000 0.000000 -9.901229 2.646586 0.276624 4.711959 1.867812 -1.008023 14.029227 -6.786106 3.056220 -11.986967 11.164187 -0.776687 0.000000 0.000000 0.000000 0.000000 0.000000 0.000000 -4.036705 -6.035009 -1.029013 -0.023306 27.115896 0.189607 11.469257 53.025864 -10.728707 -34.994785 -24.934381 -12.200367 0.000000 0.000000 0.000000 0.000000 0.000000 0.000000 -9.015291 3.469574 39.721325 2.721520 -2.516480 0.686350 36.813144 43.126590 -6.987626 0.000000 0.000000 0.000000 -8.946119 8.699395 40.865687 -0.093201 -7.888413 0.296279 5.429467 20.752945 15.143448 0.000000 0.000000 0.000000
-4.519807 75.703812 255.327819 -0.706700 -2.812343 -40.682658 -2.219725 -1.434565 40.465603 9.380684 0.379716 0.856929 -15.910307 -7.130436 7.172192 0.000000 0.000000 0.000000 -10.251584 1.956833 0.610265 4.871862 2.195794 -1.243189 16.217858 -8.143385 3.912395 -13.746370 13.330769 -1.126816 0.000000 0.000000 0.000000 0.000000 0.000000 0.000000 -3.955413 -5.652521 -1.003187 0.580420 29.109280 0.057961 11.315403 51.947591 -13.019037 -36.361309 -22.863799 -11.227232 0.000000 0.000000 0.000000 0.000000 0.000000 0.000000 -8.660953 4.859798 39.107542 2.349708 -3.118750 0.888477 33.413287 41.617708 -4.811175 0.000000 0.000000 0.000000 -8.057607 10.032090 40.568975 -0.912847 -8.208292 0.044076 3.135781 18.405241 15.613254 0.000000 0.000000 0.000000
-4.320071 75.671800 255.688571 -1.049073 -2.868916 -40.001479 -2.219195 -1.322881 39.767049 9.376233 0.432092 0.834098 -15.154023 -8.100002 7.190720 0.000000 0.000000 0.000000 -10.554049 1.416019 0.881394 5.058810 2.498451 -1.437609 18.367475 -9.598950 4.867375 -16.311391 15.936151 -1.266306 0.000000 0.000000 0.000000 0.000000 0.000000 0.000000 -3.278751 -5.324654 -0.927324 -0.386767 30.748214 0.151552 11.273046 50.182285 -14.411167 -36.588714 -21.584691 -8.994522 0.000000 0.000000 0.000000 0.000000 0.000000 0.000000 -8.798163 5.563824 38.325868 2.429792 -3.513740 1.034854 29.678281 40.193895 -2.549100 0.000000 0.000000 0.000000 -8.063198 10.766019 39.920816 -1.099043 -8.747503 -0.031917 2.729395 18.220428 16.032035 0.000000 0.000000 0.000000
-4.131143 75.679483 255.939855 -1.414449 -2.819265 -39.363091 -2.251966 -1.245130 39.110963 9.376524 0.457549 0.804208 -14.458727 -9.126433 7.272634 0.000000 0.000000 0.000000 -10.798335 0.820512 1.149403 5.374872 3.062482 -1.641195 21.348698 -10.768585 5.802880 -20.251781 17.598057 -1.051335 0.000000 0.000000 0.000000 0.000000 0.000000 0.000000 -3.100789 -4.152998 -0.849901 -1.261130 30.893591 0.318451 11.737423 49.083326 -16.299668 -35.107070 -23.804698 -5.516618 0.000000 0.000000 0.000000 0.000000 0.000000 0.000000 -8.585458 6.322513 37.572532 2.176535 -4.025285 1.177000 22.053855 35.334541 1.404244 0.000000 0.000000 0.000000 -7.951024 11.427792 39.308197 -1.357256 -9.328019 -0.142632 2.882209 18.531550 16.355563 0.000000 0.000000 0.000000
-3.930896 75.725523 256.081627 -1.840904 -2.663246 -38.876195 -2.283830 -1.206335 38.604303 9.376713 0.476716 0.764444 -13.601071 -10.072797 7.285693 0.000000 0.000000 0.000000 -10.897661 0.281423 1.378842 5.853305 3.862258 -1.829305 24.216441 -11.747069 6.692146 -23.415164 18.577730 -0.812157 0.000000 0.000000 0.000000 0.000000 0.000000 0.000000 -2.964379 -3.793750 -0.791557 -2.552588 32.473468 0.661549 12.343992 47.299716 -18.515922 -34.811085 -24.722205 -3.150747 0.000000 0.000000 0.000000 0.000000 0.000000 0.000000 -8.051343 6.983955 36.984053 1.818722 -4.456479 1.292222 15.643920 30.920714 4.231224 0.000000 0.000000 0.000000 -7.782868 11.960120 38.829643 -1.555756 -9.921377 -0.242910 -1.810444 12.532643 15.972622 0.000000 0.000000 0.000000
